<svg xmlns="http://www.w3.org/2000/svg" version="1.1" xmlns:xlink="http://www.w3.org/1999/xlink" xmlns:svgjs="http://svgjs.com/svgjs" width="1920" height="1080" preserveAspectRatio="none" viewBox="0 0 1920 1080"><g mask="url(&quot;#SvgjsMask1029&quot;)" fill="none"><rect width="1920" height="1080" x="0" y="0" fill="rgba(146, 186, 243, 1)"></rect><path d="M0,535.651C118.981,529.37,241.986,594.849,350.084,544.741C462.068,492.832,537.186,380.804,582.087,265.83C625.634,154.323,609.238,33.273,596.303,-85.735C582.928,-208.799,587.036,-344.875,505.58,-438.088C424.2,-531.213,287.739,-540.992,168.813,-574.926C50.842,-608.587,-68.971,-670.338,-186.629,-635.599C-304.244,-600.873,-368.398,-481.383,-451.973,-391.637C-538.991,-298.194,-648.944,-220.726,-686.596,-98.718C-727.1,32.531,-723.961,179.619,-666.811,304.522C-609.678,429.388,-504.415,538.03,-374.672,583.001C-253.272,625.08,-128.307,542.424,0,535.651" fill="#196de4"></path><path d="M1920 1963.496C2086.161 1962.232 2146.085 1733.79 2266.74 1619.538 2360.311 1530.933 2472.755 1471.02 2549.443 1367.4569999999999 2641.875 1242.632 2747.148 1115.032 2755.188 959.918 2763.843 792.935 2713.17 613.357 2594.6440000000002 495.41700000000003 2478.185 379.534 2299.714 359.16700000000003 2136.132 343.922 1994.6779999999999 330.73900000000003 1861.016 374.86 1724.541 414.326 1587.478 453.962 1451.6109999999999 489.77 1337.161 574.967 1201.016 676.315 1056.3229999999999 786.376 1006.708 948.688 954.43 1119.715 948.725 1333.879 1063.1770000000001 1471.298 1178.452 1609.705 1413.665 1535.116 1569.854 1624.838 1713.563 1707.391 1754.273 1964.7559999999999 1920 1963.496" fill="#ffffff"></path></g><defs><mask id="SvgjsMask1029"><rect width="1920" height="1080" fill="#ffffff"></rect></mask></defs></svg>